<svg width="858" height="98" viewBox="0 0 858 98" fill="none" xmlns="http://www.w3.org/2000/svg">
<path d="M18.655 26.565C23.6817 26.565 27.9933 27.475 31.59 29.295C35.1867 31.115 37.9383 33.7367 39.845 37.16C41.7517 40.5833 42.705 44.6567 42.705 49.38C42.705 54.06 41.7517 58.1117 39.845 61.535C37.9383 64.915 35.1867 67.515 31.59 69.335C27.9933 71.1117 23.6817 72 18.655 72H5.2V26.565H18.655ZM18.655 68.23C24.9817 68.23 29.7917 66.5833 33.085 63.29C36.4217 59.9533 38.09 55.3167 38.09 49.38C38.09 43.4 36.4217 38.7417 33.085 35.405C29.7917 32.025 24.9817 30.335 18.655 30.335H9.75V68.23H18.655ZM55.6436 30.27V47.235H72.8686V51.005H55.6436V68.23H74.8186V72H51.0936V26.5H74.8186V30.27H55.6436ZM97.564 72.455C94.574 72.455 91.9307 71.935 89.634 70.895C87.3807 69.855 85.604 68.4033 84.304 66.54C83.004 64.6767 82.3107 62.5967 82.224 60.3H87.034C87.2507 62.51 88.2257 64.46 89.959 66.15C91.6923 67.7967 94.2273 68.62 97.564 68.62C100.641 68.62 103.067 67.84 104.844 66.28C106.664 64.6767 107.574 62.6617 107.574 60.235C107.574 58.285 107.076 56.725 106.079 55.555C105.082 54.3417 103.847 53.4533 102.374 52.89C100.901 52.2833 98.864 51.6333 96.264 50.94C93.2307 50.1167 90.8257 49.315 89.049 48.535C87.2723 47.755 85.7557 46.5417 84.499 44.895C83.2423 43.2483 82.614 41.0167 82.614 38.2C82.614 35.86 83.2207 33.78 84.434 31.96C85.6473 30.0967 87.359 28.645 89.569 27.605C91.779 26.565 94.314 26.045 97.174 26.045C101.377 26.045 104.757 27.085 107.314 29.165C109.914 31.2017 111.409 33.845 111.799 37.095H106.859C106.556 35.2317 105.537 33.585 103.804 32.155C102.071 30.6817 99.7307 29.945 96.784 29.945C94.054 29.945 91.779 30.6817 89.959 32.155C88.139 33.585 87.229 35.5567 87.229 38.07C87.229 39.9767 87.7273 41.515 88.724 42.685C89.7207 43.855 90.9557 44.7433 92.429 45.35C93.9457 45.9567 95.9823 46.6067 98.539 47.3C101.486 48.1233 103.869 48.9467 105.689 49.77C107.509 50.55 109.047 51.7633 110.304 53.41C111.561 55.0567 112.189 57.2667 112.189 60.04C112.189 62.1633 111.626 64.1783 110.499 66.085C109.372 67.9917 107.704 69.53 105.494 70.7C103.284 71.87 100.641 72.455 97.564 72.455ZM125.531 26.565V72H120.981V26.565H125.531ZM171.585 39.825C170.285 36.835 168.291 34.495 165.605 32.805C162.961 31.0717 159.841 30.205 156.245 30.205C152.865 30.205 149.831 30.985 147.145 32.545C144.458 34.105 142.335 36.3367 140.775 39.24C139.215 42.1 138.435 45.4367 138.435 49.25C138.435 53.0633 139.215 56.4217 140.775 59.325C142.335 62.2283 144.458 64.46 147.145 66.02C149.831 67.58 152.865 68.36 156.245 68.36C159.408 68.36 162.246 67.6883 164.76 66.345C167.316 64.9583 169.353 63.0083 170.87 60.495C172.43 57.9383 173.318 54.97 173.535 51.59H154.425V47.885H178.345V51.2C178.128 55.1867 177.045 58.805 175.095 62.055C173.145 65.2617 170.523 67.7967 167.23 69.66C163.98 71.5233 160.318 72.455 156.245 72.455C152.041 72.455 148.228 71.48 144.805 69.53C141.381 67.5367 138.673 64.785 136.68 61.275C134.73 57.7217 133.755 53.7133 133.755 49.25C133.755 44.7867 134.73 40.8 136.68 37.29C138.673 33.7367 141.381 30.985 144.805 29.035C148.228 27.0417 152.041 26.045 156.245 26.045C161.098 26.045 165.345 27.2583 168.985 29.685C172.625 32.1117 175.268 35.4917 176.915 39.825H171.585ZM220.934 72H216.384L191.229 33.78V72H186.679V26.565H191.229L216.384 64.72V26.565H220.934V72ZM283.657 72L277.482 65.695C275.272 68.1217 272.91 69.92 270.397 71.09C267.884 72.2167 265.045 72.78 261.882 72.78C258.849 72.78 256.162 72.2167 253.822 71.09C251.482 69.92 249.662 68.295 248.362 66.215C247.062 64.135 246.412 61.73 246.412 59C246.412 55.7933 247.322 52.9983 249.142 50.615C250.962 48.2317 253.627 46.3683 257.137 45.025C255.62 43.335 254.515 41.775 253.822 40.345C253.129 38.8717 252.782 37.29 252.782 35.6C252.782 32.6967 253.822 30.3567 255.902 28.58C257.982 26.76 260.755 25.85 264.222 25.85C267.472 25.85 270.115 26.7817 272.152 28.645C274.189 30.5083 275.142 32.935 275.012 35.925H270.462C270.505 33.975 269.899 32.4367 268.642 31.31C267.429 30.1833 265.89 29.62 264.027 29.62C262.034 29.62 260.409 30.1833 259.152 31.31C257.939 32.3933 257.332 33.8017 257.332 35.535C257.332 36.9217 257.7 38.265 258.437 39.565C259.217 40.865 260.43 42.4033 262.077 44.18L277.027 59.325C277.634 58.5017 278.457 57.2017 279.497 55.425L283.657 48.47H288.532L283.592 56.985C282.422 59.0217 281.252 60.8417 280.082 62.445L289.572 72H283.657ZM261.882 68.815C264.439 68.815 266.714 68.3167 268.707 67.32C270.744 66.3233 272.672 64.7633 274.492 62.64L259.997 47.95C253.974 50.16 250.962 53.8 250.962 58.87C250.962 60.7767 251.417 62.4883 252.327 64.005C253.28 65.4783 254.58 66.6483 256.227 67.515C257.874 68.3817 259.759 68.815 261.882 68.815ZM368.753 26.565L355.883 72H350.813L339.373 33.26L327.673 72L322.733 72.065L310.123 26.565H314.998L325.398 66.41L337.033 26.565H342.103L353.413 66.41L363.878 26.565H368.753ZM380.263 30.27V47.235H397.488V51.005H380.263V68.23H399.438V72H375.713V26.5H399.438V30.27H380.263ZM429.658 48.535C432.215 49.0117 434.381 50.3117 436.158 52.435C437.935 54.5583 438.823 57.0283 438.823 59.845C438.823 62.1417 438.238 64.2217 437.068 66.085C435.941 67.905 434.273 69.3567 432.063 70.44C429.853 71.48 427.21 72 424.133 72H408.403V26.565H423.678C428.271 26.565 431.76 27.6267 434.143 29.75C436.57 31.8733 437.783 34.625 437.783 38.005C437.783 40.8217 437.025 43.1183 435.508 44.895C433.991 46.6283 432.041 47.8417 429.658 48.535ZM412.953 46.65H423.548C426.625 46.65 428.986 45.935 430.633 44.505C432.323 43.0317 433.168 41.0167 433.168 38.46C433.168 35.9467 432.323 33.975 430.633 32.545C428.986 31.115 426.56 30.4 423.353 30.4H412.953V46.65ZM423.808 68.165C427.101 68.165 429.658 67.385 431.478 65.825C433.341 64.265 434.273 62.12 434.273 59.39C434.273 56.66 433.298 54.4933 431.348 52.89C429.441 51.2433 426.863 50.42 423.613 50.42H412.953V68.165H423.808ZM468.442 48.535C470.999 49.0117 473.166 50.3117 474.942 52.435C476.719 54.5583 477.607 57.0283 477.607 59.845C477.607 62.1417 477.022 64.2217 475.852 66.085C474.726 67.905 473.057 69.3567 470.847 70.44C468.637 71.48 465.994 72 462.917 72H447.187V26.565H462.462C467.056 26.565 470.544 27.6267 472.927 29.75C475.354 31.8733 476.567 34.625 476.567 38.005C476.567 40.8217 475.809 43.1183 474.292 44.895C472.776 46.6283 470.826 47.8417 468.442 48.535ZM451.737 46.65H462.332C465.409 46.65 467.771 45.935 469.417 44.505C471.107 43.0317 471.952 41.0167 471.952 38.46C471.952 35.9467 471.107 33.975 469.417 32.545C467.771 31.115 465.344 30.4 462.137 30.4H451.737V46.65ZM462.592 68.165C465.886 68.165 468.442 67.385 470.262 65.825C472.126 64.265 473.057 62.12 473.057 59.39C473.057 56.66 472.082 54.4933 470.132 52.89C468.226 51.2433 465.647 50.42 462.397 50.42H451.737V68.165H462.592ZM490.326 26.565V55.165C490.326 59.6717 491.388 63.0083 493.511 65.175C495.678 67.3417 498.625 68.425 502.351 68.425C506.078 68.425 508.981 67.3633 511.061 65.24C513.185 63.0733 514.246 59.715 514.246 55.165V26.565H518.796V55.1C518.796 60.8633 517.258 65.1967 514.181 68.1C511.148 71.0033 507.183 72.455 502.286 72.455C497.39 72.455 493.403 71.0033 490.326 68.1C487.293 65.1967 485.776 60.8633 485.776 55.1V26.565H490.326ZM555.53 26.565V30.335H542.92V72H538.37V30.335H525.695V26.565H555.53ZM598.725 26.565L581.5 72H576.3L559.075 26.565H564.015L578.9 67.06L593.915 26.565H598.725ZM610.111 30.27V47.235H627.336V51.005H610.111V68.23H629.286V72H605.561V26.5H629.286V30.27H610.111ZM636.172 49.25C636.172 44.7867 637.147 40.8 639.097 37.29C641.047 33.7367 643.712 30.985 647.092 29.035C650.472 27.0417 654.242 26.045 658.402 26.045C663.472 26.045 667.805 27.2583 671.402 29.685C675.042 32.0683 677.685 35.4483 679.332 39.825H674.002C672.702 36.7483 670.708 34.3433 668.022 32.61C665.378 30.8767 662.172 30.01 658.402 30.01C655.065 30.01 652.053 30.79 649.367 32.35C646.723 33.91 644.643 36.1633 643.127 39.11C641.61 42.0133 640.852 45.3933 640.852 49.25C640.852 53.1067 641.61 56.4867 643.127 59.39C644.643 62.2933 646.723 64.525 649.367 66.085C652.053 67.645 655.065 68.425 658.402 68.425C662.172 68.425 665.378 67.58 668.022 65.89C670.708 64.1567 672.702 61.7733 674.002 58.74H679.332C677.685 63.0733 675.042 66.4317 671.402 68.815C667.762 71.1983 663.428 72.39 658.402 72.39C654.242 72.39 650.472 71.415 647.092 69.465C643.712 67.4717 641.047 64.72 639.097 61.21C637.147 57.7 636.172 53.7133 636.172 49.25ZM712.643 72L692.948 51.005V72H688.398V26.565H692.948V47.82L712.643 26.565H718.428L697.173 49.25L718.623 72H712.643ZM729.892 68.295H746.207V72H725.342V26.565H729.892V68.295ZM757.25 26.565V72H752.7V26.565H757.25ZM801.809 72H797.259L772.104 33.78V72H767.554V26.565H772.104L797.259 64.72V26.565H801.809V72ZM847.864 39.825C846.564 36.835 844.571 34.495 841.884 32.805C839.241 31.0717 836.121 30.205 832.524 30.205C829.144 30.205 826.111 30.985 823.424 32.545C820.737 34.105 818.614 36.3367 817.054 39.24C815.494 42.1 814.714 45.4367 814.714 49.25C814.714 53.0633 815.494 56.4217 817.054 59.325C818.614 62.2283 820.737 64.46 823.424 66.02C826.111 67.58 829.144 68.36 832.524 68.36C835.687 68.36 838.526 67.6883 841.039 66.345C843.596 64.9583 845.632 63.0083 847.149 60.495C848.709 57.9383 849.597 54.97 849.814 51.59H830.704V47.885H854.624V51.2C854.407 55.1867 853.324 58.805 851.374 62.055C849.424 65.2617 846.802 67.7967 843.509 69.66C840.259 71.5233 836.597 72.455 832.524 72.455C828.321 72.455 824.507 71.48 821.084 69.53C817.661 67.5367 814.952 64.785 812.959 61.275C811.009 57.7217 810.034 53.7133 810.034 49.25C810.034 44.7867 811.009 40.8 812.959 37.29C814.952 33.7367 817.661 30.985 821.084 29.035C824.507 27.0417 828.321 26.045 832.524 26.045C837.377 26.045 841.624 27.2583 845.264 29.685C848.904 32.1117 851.547 35.4917 853.194 39.825H847.864Z" fill="black"/>
</svg>
