<svg width="464" height="98" viewBox="0 0 464 98" fill="none" xmlns="http://www.w3.org/2000/svg">
<path d="M38.805 41.06C38.805 43.7033 38.1983 46.13 36.985 48.34C35.7717 50.5067 33.9083 52.2617 31.395 53.605C28.8817 54.9483 25.7617 55.62 22.035 55.62H15.145V72H4.03V26.37H22.035C25.675 26.37 28.7517 26.9983 31.265 28.255C33.7783 29.5117 35.6633 31.245 36.92 33.455C38.1767 35.665 38.805 38.2 38.805 41.06ZM21.19 46.78C23.3133 46.78 24.895 46.2817 25.935 45.285C26.975 44.2883 27.495 42.88 27.495 41.06C27.495 39.24 26.975 37.8317 25.935 36.835C24.895 35.8383 23.3133 35.34 21.19 35.34H15.145V46.78H21.19ZM55.7065 35.275V44.505H70.5915V53.085H55.7065V63.095H72.5415V72H44.5915V26.37H72.5415V35.275H55.7065ZM103.028 72L93.5375 54.775H90.8725V72H79.7575V26.37H98.4125C102.009 26.37 105.064 26.9983 107.578 28.255C110.134 29.5117 112.041 31.245 113.298 33.455C114.554 35.6217 115.183 38.0483 115.183 40.735C115.183 43.7683 114.316 46.4767 112.583 48.86C110.893 51.2433 108.379 52.9333 105.043 53.93L115.573 72H103.028ZM90.8725 46.91H97.7625C99.7992 46.91 101.316 46.4117 102.313 45.415C103.353 44.4183 103.873 43.01 103.873 41.19C103.873 39.4567 103.353 38.0917 102.313 37.095C101.316 36.0983 99.7992 35.6 97.7625 35.6H90.8725V46.91ZM157.514 72.455C153.224 72.455 149.281 71.4583 145.684 69.465C142.131 67.4717 139.293 64.6983 137.169 61.145C135.089 57.5483 134.049 53.5183 134.049 49.055C134.049 44.5917 135.089 40.5833 137.169 37.03C139.293 33.4767 142.131 30.7033 145.684 28.71C149.281 26.7167 153.224 25.72 157.514 25.72C161.804 25.72 165.726 26.7167 169.279 28.71C172.876 30.7033 175.693 33.4767 177.729 37.03C179.809 40.5833 180.849 44.5917 180.849 49.055C180.849 53.5183 179.809 57.5483 177.729 61.145C175.649 64.6983 172.833 67.4717 169.279 69.465C165.726 71.4583 161.804 72.455 157.514 72.455ZM157.514 62.315C161.154 62.315 164.058 61.1017 166.224 58.675C168.434 56.2483 169.539 53.0417 169.539 49.055C169.539 45.025 168.434 41.8183 166.224 39.435C164.058 37.0083 161.154 35.795 157.514 35.795C153.831 35.795 150.884 36.9867 148.674 39.37C146.508 41.7533 145.424 44.9817 145.424 49.055C145.424 53.085 146.508 56.3133 148.674 58.74C150.884 61.1233 153.831 62.315 157.514 62.315ZM198.148 63.42H212.708V72H187.033V26.37H198.148V63.42ZM239.589 72.455C235.299 72.455 231.356 71.4583 227.759 69.465C224.206 67.4717 221.368 64.6983 219.244 61.145C217.164 57.5483 216.124 53.5183 216.124 49.055C216.124 44.5917 217.164 40.5833 219.244 37.03C221.368 33.4767 224.206 30.7033 227.759 28.71C231.356 26.7167 235.299 25.72 239.589 25.72C243.879 25.72 247.801 26.7167 251.354 28.71C254.951 30.7033 257.768 33.4767 259.804 37.03C261.884 40.5833 262.924 44.5917 262.924 49.055C262.924 53.5183 261.884 57.5483 259.804 61.145C257.724 64.6983 254.908 67.4717 251.354 69.465C247.801 71.4583 243.879 72.455 239.589 72.455ZM239.589 62.315C243.229 62.315 246.133 61.1017 248.299 58.675C250.509 56.2483 251.614 53.0417 251.614 49.055C251.614 45.025 250.509 41.8183 248.299 39.435C246.133 37.0083 243.229 35.795 239.589 35.795C235.906 35.795 232.959 36.9867 230.749 39.37C228.583 41.7533 227.499 44.9817 227.499 49.055C227.499 53.085 228.583 56.3133 230.749 58.74C232.959 61.1233 235.906 62.315 239.589 62.315ZM311.943 26.37L295.758 72H281.848L265.663 26.37H277.493L288.803 60.82L300.178 26.37H311.943ZM371.183 72H360.068L341.478 43.855V72H330.363V26.37H341.478L360.068 54.645V26.37H371.183V72ZM407.645 63.94H390.615L387.885 72H376.25L392.76 26.37H405.63L422.14 72H410.375L407.645 63.94ZM404.785 55.36L399.13 38.655L393.54 55.36H404.785ZM392.63 22.21C391.287 22.21 390.16 21.755 389.25 20.845C388.34 19.935 387.885 18.8083 387.885 17.465C387.885 16.1217 388.34 14.995 389.25 14.085C390.16 13.1317 391.287 12.655 392.63 12.655C394.017 12.655 395.165 13.11 396.075 14.02C396.985 14.93 397.44 16.0783 397.44 17.465C397.44 18.8083 396.963 19.935 396.01 20.845C395.1 21.755 393.973 22.21 392.63 22.21ZM405.63 22.21C404.287 22.21 403.16 21.755 402.25 20.845C401.34 19.935 400.885 18.8083 400.885 17.465C400.885 16.1217 401.34 14.995 402.25 14.085C403.16 13.1317 404.287 12.655 405.63 12.655C407.017 12.655 408.165 13.11 409.075 14.02C409.985 14.93 410.44 16.0783 410.44 17.465C410.44 18.8083 409.963 19.935 409.01 20.845C408.1 21.755 406.973 22.21 405.63 22.21ZM443.675 72.455C440.338 72.455 437.348 71.9133 434.705 70.83C432.061 69.7467 429.938 68.1433 428.335 66.02C426.775 63.8967 425.951 61.34 425.865 58.35H437.695C437.868 60.04 438.453 61.34 439.45 62.25C440.446 63.1167 441.746 63.55 443.35 63.55C444.996 63.55 446.296 63.1817 447.25 62.445C448.203 61.665 448.68 60.6033 448.68 59.26C448.68 58.1333 448.29 57.2017 447.51 56.465C446.773 55.7283 445.841 55.1217 444.715 54.645C443.631 54.1683 442.071 53.6267 440.035 53.02C437.088 52.11 434.683 51.2 432.82 50.29C430.956 49.38 429.353 48.0367 428.01 46.26C426.666 44.4833 425.995 42.165 425.995 39.305C425.995 35.0583 427.533 31.7433 430.61 29.36C433.686 26.9333 437.695 25.72 442.635 25.72C447.661 25.72 451.713 26.9333 454.79 29.36C457.866 31.7433 459.513 35.08 459.73 39.37H447.705C447.618 37.8967 447.076 36.7483 446.08 35.925C445.083 35.0583 443.805 34.625 442.245 34.625C440.901 34.625 439.818 34.9933 438.995 35.73C438.171 36.4233 437.76 37.4417 437.76 38.785C437.76 40.2583 438.453 41.4067 439.84 42.23C441.226 43.0533 443.393 43.9417 446.34 44.895C449.286 45.8917 451.67 46.845 453.49 47.755C455.353 48.665 456.956 49.9867 458.3 51.72C459.643 53.4533 460.315 55.685 460.315 58.415C460.315 61.015 459.643 63.3767 458.3 65.5C457 67.6233 455.093 69.3133 452.58 70.57C450.066 71.8267 447.098 72.455 443.675 72.455Z" fill="black"/>
</svg>
