<svg width="455" height="98" viewBox="0 0 455 98" fill="none" xmlns="http://www.w3.org/2000/svg">
<path d="M36.465 40.28C36.465 42.5767 35.9233 44.7433 34.84 46.78C33.7567 48.8167 32.0233 50.485 29.64 51.785C27.2567 53.0417 24.2017 53.67 20.475 53.67H12.285V72H4.875V26.825H20.475C23.9417 26.825 26.8667 27.4317 29.25 28.645C31.6767 29.815 33.475 31.4183 34.645 33.455C35.8583 35.4917 36.465 37.7667 36.465 40.28ZM20.475 47.625C23.2917 47.625 25.3933 46.9967 26.78 45.74C28.1667 44.44 28.86 42.62 28.86 40.28C28.86 35.34 26.065 32.87 20.475 32.87H12.285V47.625H20.475ZM50.9422 32.805V46.065H66.5422V52.11H50.9422V65.955H68.4922V72H43.5322V26.76H68.4922V32.805H50.9422ZM101.084 72L90.6841 53.93H85.0291V72H77.6191V26.825H93.2191C96.6858 26.825 99.6108 27.4317 101.994 28.645C104.421 29.8583 106.219 31.4833 107.389 33.52C108.602 35.5567 109.209 37.8317 109.209 40.345C109.209 43.2917 108.342 45.9783 106.609 48.405C104.919 50.7883 102.297 52.4133 98.7441 53.28L109.924 72H101.084ZM85.0291 48.015H93.2191C95.9925 48.015 98.0725 47.3217 99.4591 45.935C100.889 44.5483 101.604 42.685 101.604 40.345C101.604 38.005 100.911 36.185 99.5241 34.885C98.1375 33.5417 96.0358 32.87 93.2191 32.87H85.0291V48.015ZM156.178 72.455C151.975 72.455 148.097 71.48 144.543 69.53C141.033 67.5367 138.238 64.785 136.158 61.275C134.122 57.7217 133.103 53.735 133.103 49.315C133.103 44.895 134.122 40.93 136.158 37.42C138.238 33.91 141.033 31.18 144.543 29.23C148.097 27.2367 151.975 26.24 156.178 26.24C160.425 26.24 164.303 27.2367 167.813 29.23C171.367 31.18 174.162 33.91 176.198 37.42C178.235 40.93 179.253 44.895 179.253 49.315C179.253 53.735 178.235 57.7217 176.198 61.275C174.162 64.785 171.367 67.5367 167.813 69.53C164.303 71.48 160.425 72.455 156.178 72.455ZM156.178 66.02C159.168 66.02 161.833 65.3483 164.173 64.005C166.513 62.6183 168.333 60.6683 169.633 58.155C170.977 55.5983 171.648 52.6517 171.648 49.315C171.648 45.9783 170.977 43.0533 169.633 40.54C168.333 38.0267 166.513 36.0983 164.173 34.755C161.833 33.4117 159.168 32.74 156.178 32.74C153.188 32.74 150.523 33.4117 148.183 34.755C145.843 36.0983 144.002 38.0267 142.658 40.54C141.358 43.0533 140.708 45.9783 140.708 49.315C140.708 52.6517 141.358 55.5983 142.658 58.155C144.002 60.6683 145.843 62.6183 148.183 64.005C150.523 65.3483 153.188 66.02 156.178 66.02ZM193.955 66.02H209.23V72H186.545V26.825H193.955V66.02ZM236.032 72.455C231.828 72.455 227.95 71.48 224.397 69.53C220.887 67.5367 218.092 64.785 216.012 61.275C213.975 57.7217 212.957 53.735 212.957 49.315C212.957 44.895 213.975 40.93 216.012 37.42C218.092 33.91 220.887 31.18 224.397 29.23C227.95 27.2367 231.828 26.24 236.032 26.24C240.278 26.24 244.157 27.2367 247.667 29.23C251.22 31.18 254.015 33.91 256.052 37.42C258.088 40.93 259.107 44.895 259.107 49.315C259.107 53.735 258.088 57.7217 256.052 61.275C254.015 64.785 251.22 67.5367 247.667 69.53C244.157 71.48 240.278 72.455 236.032 72.455ZM236.032 66.02C239.022 66.02 241.687 65.3483 244.027 64.005C246.367 62.6183 248.187 60.6683 249.487 58.155C250.83 55.5983 251.502 52.6517 251.502 49.315C251.502 45.9783 250.83 43.0533 249.487 40.54C248.187 38.0267 246.367 36.0983 244.027 34.755C241.687 33.4117 239.022 32.74 236.032 32.74C233.042 32.74 230.377 33.4117 228.037 34.755C225.697 36.0983 223.855 38.0267 222.512 40.54C221.212 43.0533 220.562 45.9783 220.562 49.315C220.562 52.6517 221.212 55.5983 222.512 58.155C223.855 60.6683 225.697 62.6183 228.037 64.005C230.377 65.3483 233.042 66.02 236.032 66.02ZM305.333 26.825L288.368 72H279.788L262.758 26.825H270.688L284.078 64.395L297.533 26.825H305.333ZM365.53 72H358.12L335.825 38.265V72H328.415V26.76H335.825L358.12 60.43V26.76H365.53V72ZM402.496 62.77H383.581L380.331 72H372.596L388.781 26.76H397.361L413.546 72H405.746L402.496 62.77ZM400.416 56.725L393.071 35.73L385.661 56.725H400.416ZM387.481 22.275C386.397 22.275 385.466 21.9067 384.686 21.17C383.949 20.39 383.581 19.4583 383.581 18.375C383.581 17.2917 383.949 16.3817 384.686 15.645C385.466 14.865 386.397 14.475 387.481 14.475C388.564 14.475 389.474 14.865 390.211 15.645C390.991 16.3817 391.381 17.2917 391.381 18.375C391.381 19.4583 390.991 20.39 390.211 21.17C389.474 21.9067 388.564 22.275 387.481 22.275ZM398.661 22.275C397.577 22.275 396.646 21.9067 395.866 21.17C395.129 20.39 394.761 19.4583 394.761 18.375C394.761 17.2917 395.129 16.3817 395.866 15.645C396.646 14.865 397.577 14.475 398.661 14.475C399.744 14.475 400.654 14.865 401.391 15.645C402.171 16.3817 402.561 17.2917 402.561 18.375C402.561 19.4583 402.171 20.39 401.391 21.17C400.654 21.9067 399.744 22.275 398.661 22.275ZM435.468 72.455C432.435 72.455 429.705 71.935 427.278 70.895C424.851 69.8117 422.945 68.295 421.558 66.345C420.171 64.395 419.478 62.12 419.478 59.52H427.408C427.581 61.47 428.34 63.0733 429.683 64.33C431.07 65.5867 432.998 66.215 435.468 66.215C438.025 66.215 440.018 65.6083 441.448 64.395C442.878 63.1383 443.593 61.535 443.593 59.585C443.593 58.0683 443.138 56.8333 442.228 55.88C441.361 54.9267 440.256 54.19 438.913 53.67C437.613 53.15 435.793 52.5867 433.453 51.98C430.506 51.2 428.101 50.42 426.238 49.64C424.418 48.8167 422.858 47.56 421.558 45.87C420.258 44.18 419.608 41.9267 419.608 39.11C419.608 36.51 420.258 34.235 421.558 32.285C422.858 30.335 424.678 28.84 427.018 27.8C429.358 26.76 432.066 26.24 435.143 26.24C439.52 26.24 443.095 27.345 445.868 29.555C448.685 31.7217 450.245 34.7117 450.548 38.525H442.358C442.228 36.8783 441.448 35.47 440.018 34.3C438.588 33.13 436.703 32.545 434.363 32.545C432.24 32.545 430.506 33.0867 429.163 34.17C427.82 35.2533 427.148 36.8133 427.148 38.85C427.148 40.2367 427.56 41.385 428.383 42.295C429.25 43.1617 430.333 43.855 431.633 44.375C432.933 44.895 434.71 45.4583 436.963 46.065C439.953 46.8883 442.38 47.7117 444.243 48.535C446.15 49.3583 447.753 50.6367 449.053 52.37C450.396 54.06 451.068 56.335 451.068 59.195C451.068 61.4917 450.44 63.6583 449.183 65.695C447.97 67.7317 446.171 69.3783 443.788 70.635C441.448 71.8483 438.675 72.455 435.468 72.455Z" fill="black"/>
</svg>
